<svg version="1.1" xmlns="http://www.w3.org/2000/svg" width="32" height="32" viewBox="0 0 32 32">
<title>newsletter</title>
<path d="M16 0c-8.823 0-16 7.176-16 16s7.177 16 16 16 16-7.177 16-16c0-8.824-7.177-16-16-16v0zM16 30.754c-8.136 0-14.754-6.619-14.754-14.754s6.619-14.755 14.754-14.755 14.754 6.619 14.754 14.755c0 8.135-6.619 14.754-14.754 14.754zM23.545 10.693h-0.384v-4.287c0-0.344-0.279-0.623-0.623-0.623h-12.939c-0.344 0-0.623 0.28-0.623 0.623v4.287h-0.52c-1.532 0-2.699 1.282-2.699 2.699v9.066c0 1.525 1.262 2.699 2.699 2.699h15.090c1.438 0 2.699-1.172 2.699-2.699v-9.066c0-1.409-1.157-2.699-2.699-2.699zM23.161 11.938h0.384c0.618 0 1.142 0.389 1.353 0.932l-1.737 1.006v-1.938zM10.222 7.028h11.694v7.567l-5.906 3.416-5.787-3.347v-7.637zM8.456 11.938h0.52v2.005l-1.87-1.082c0.213-0.539 0.735-0.923 1.35-0.923zM7.003 22.457v-8.216l7.762 4.491-7.593 4.392c-0.105-0.2-0.169-0.425-0.169-0.667zM23.545 23.909h-15.090c-0.046 0-0.088-0.008-0.132-0.012l7.685-4.446 7.683 4.444c-0.049 0.005-0.096 0.014-0.147 0.014zM24.999 22.457c0 0.238-0.063 0.46-0.165 0.659l-7.58-4.385 7.746-4.481v8.206zM19.101 14.828c0-0.344-0.278-0.623-0.622-0.623h-4.956c-0.344 0-0.622 0.279-0.622 0.623s0.279 0.622 0.622 0.622h4.956c0.344 0 0.622-0.279 0.622-0.622zM20.248 12.018c0-0.344-0.279-0.622-0.622-0.622h-7.251c-0.344 0-0.622 0.279-0.622 0.622s0.279 0.622 0.622 0.622h7.251c0.344 0 0.622-0.279 0.622-0.622zM12.375 9.832h7.251c0.344 0 0.622-0.279 0.622-0.622 0-0.345-0.279-0.623-0.622-0.623h-7.251c-0.344 0-0.622 0.278-0.622 0.623 0 0.344 0.279 0.622 0.622 0.622z"></path>
</svg>
