<svg version="1.1" xmlns="http://www.w3.org/2000/svg" width="32" height="32" viewBox="0 0 32 32">
<title>refresh</title>
<path d="M15.973 0c-8.808 0-15.973 7.166-15.973 15.974s7.166 15.973 15.973 15.973c8.808 0 15.975-7.166 15.975-15.973s-7.166-15.974-15.975-15.974v0zM15.973 30.704c-8.122 0-14.73-6.608-14.73-14.73s6.608-14.73 14.73-14.73c8.123 0 14.731 6.607 14.731 14.73s-6.607 14.73-14.731 14.73v0zM21.853 8.204c-1.729-1.28-3.833-1.926-5.969-1.882l2.108-2.109c0.243-0.242 0.243-0.637 0-0.879s-0.636-0.243-0.879 0l-3.364 3.363c-0.008 0.008-0.009 0.018-0.017 0.026-0.040 0.045-0.072 0.091-0.097 0.145-0.011 0.024-0.021 0.046-0.028 0.071-0.016 0.047-0.026 0.094-0.030 0.145-0.001 0.018-0.011 0.036-0.011 0.053 0 0.021 0.010 0.039 0.012 0.059s-0.004 0.042 0.001 0.062c0.003 0.020 0.017 0.034 0.022 0.053 0.013 0.045 0.032 0.086 0.055 0.127 0.016 0.028 0.032 0.053 0.052 0.078 0.015 0.020 0.024 0.044 0.040 0.061l3.364 3.363c0.121 0.121 0.28 0.181 0.439 0.181 0.16 0 0.318-0.060 0.44-0.181 0.243-0.243 0.243-0.637 0-0.879l-2.48-2.481c2.007-0.143 3.96 0.409 5.601 1.624 1.937 1.436 3.169 3.636 3.379 6.037 0.405 4.627-3.031 8.721-7.659 9.126-2.238 0.194-4.426-0.492-6.149-1.939-1.724-1.446-2.782-3.478-2.978-5.72-0.029-0.341-0.319-0.598-0.672-0.565-0.343 0.030-0.596 0.332-0.566 0.674 0.226 2.573 1.438 4.904 3.417 6.564 1.757 1.474 3.931 2.262 6.197 2.262 0.285 0 0.572-0.012 0.859-0.037 5.31-0.464 9.252-5.163 8.788-10.473-0.242-2.754-1.654-5.28-3.877-6.927z"></path>
</svg>
