<svg version="1.1" xmlns="http://www.w3.org/2000/svg" width="32" height="32" viewBox="0 0 32 32">
<title>search</title>
<path d="M23.592 23.723c-0.001 0.189-0.073 0.366-0.207 0.499-0.179 0.18-0.39 0.207-0.499 0.207s-0.319-0.027-0.496-0.205l-3.455-3.457c0.393-0.265 0.76-0.567 1.099-0.897l3.355 3.356c0.178 0.178 0.205 0.388 0.205 0.497v0 0zM8.137 14.297c0-3.56 2.897-6.456 6.456-6.456 3.56 0 6.457 2.896 6.457 6.456s-2.896 6.457-6.457 6.457c-3.559 0-6.456-2.896-6.456-6.457v0 0zM20.906 18.852c0.929-1.283 1.483-2.853 1.483-4.555 0-4.297-3.497-7.794-7.795-7.794s-7.794 3.497-7.794 7.794c0 4.298 3.497 7.795 7.794 7.795 1.108 0 2.161-0.237 3.117-0.655 1.359 1.36 3.732 3.733 3.732 3.733 0.794 0.794 2.090 0.797 2.888-0.002 0.797-0.797 0.799-2.092 0.002-2.889 0 0-2.006-2.005-3.427-3.427v0 0zM15.865 30.661c-8.009 0-14.527-6.516-14.527-14.527s6.518-14.526 14.527-14.526c8.010 0 14.526 6.516 14.526 14.526s-6.516 14.527-14.526 14.527v0 0zM15.865 0.27c-8.748 0-15.865 7.117-15.865 15.865s7.117 15.866 15.865 15.866c8.748 0 15.865-7.118 15.865-15.866s-7.117-15.865-15.865-15.865v0 0z"></path>
</svg>
