<svg version="1.1" xmlns="http://www.w3.org/2000/svg" width="32" height="32" viewBox="0 0 32 32">
<title>star</title>
<path d="M16 0c-8.823 0-16 7.177-16 16s7.177 16 16 16c8.823 0 16-7.177 16-16s-7.177-16-16-16v0zM16 30.754c-8.136 0-14.754-6.619-14.754-14.754s6.619-14.755 14.754-14.755 14.754 6.619 14.754 14.755c0 8.135-6.619 14.754-14.754 14.754v0zM26.72 12.419c-0.2-0.615-0.748-1.014-1.396-1.014h-5.896c-0.097 0-0.181-0.061-0.211-0.153l-1.822-5.607c-0.2-0.616-0.747-1.014-1.395-1.014s-1.195 0.398-1.395 1.014l-1.822 5.607c-0.030 0.092-0.114 0.153-0.21 0.153h-5.896c-0.648 0-1.196 0.399-1.396 1.015s0.009 1.259 0.533 1.64l4.771 3.466c0.078 0.057 0.11 0.156 0.080 0.248l-1.822 5.608c-0.147 0.453-0.073 0.931 0.202 1.31 0.462 0.637 1.41 0.799 2.056 0.331l4.771-3.465c0.095-0.071 0.164-0.072 0.26 0l4.77 3.465c0.256 0.186 0.552 0.285 0.86 0.285 0.469 0 0.915-0.23 1.195-0.615 0.277-0.379 0.35-0.857 0.203-1.31l-1.822-5.608c-0.030-0.091 0.003-0.19 0.080-0.248l4.771-3.465c0.523-0.382 0.733-1.026 0.533-1.641zM25.454 13.052l-4.77 3.466c-0.515 0.375-0.73 1.035-0.533 1.64l1.822 5.607c0.024 0.075 0.015 0.136-0.026 0.194-0.072 0.099-0.203 0.137-0.316 0.054l-4.77-3.465c-0.252-0.184-0.551-0.28-0.862-0.28s-0.61 0.097-0.862 0.28l-4.77 3.467c-0.11 0.080-0.243 0.045-0.316-0.055-0.041-0.057-0.050-0.118-0.025-0.194l1.822-5.607c0.197-0.606-0.018-1.266-0.533-1.64l-4.77-3.467c-0.107-0.078-0.103-0.178-0.081-0.248 0.024-0.069 0.078-0.153 0.212-0.153h5.896c0.638 0 1.198-0.408 1.395-1.013l1.822-5.608c0.041-0.126 0.137-0.153 0.211-0.153s0.17 0.027 0.211 0.153l1.822 5.608c0.197 0.606 0.757 1.013 1.396 1.013h5.896c0.134 0 0.188 0.084 0.211 0.153s0.027 0.17-0.081 0.248z"></path>
</svg>
