<svg version="1.1" xmlns="http://www.w3.org/2000/svg" width="32" height="32" viewBox="0 0 32 32">
<title>tag</title>
<path d="M16 32c-8.822 0-16-7.177-16-16s7.178-16 16-16c8.824 0 16 7.177 16 16s-7.176 16-16 16v0zM16 1.245c-8.135 0-14.754 6.619-14.754 14.755s6.619 14.754 14.754 14.754c8.136 0 14.755-6.619 14.755-14.754s-6.619-14.755-14.755-14.755v0zM12.679 26.939c-0.565 0-1.094-0.22-1.493-0.619l-5.477-5.478c-0.406-0.406-0.63-0.946-0.63-1.52s0.224-1.115 0.631-1.521l10.034-10.035c0.398-0.398 0.926-0.616 1.488-0.618h6.625c0.549 0 0.996 0.446 0.996 0.996v6.623c-0.002 0.564-0.22 1.093-0.618 1.49l-10.063 10.063c-0.398 0.398-0.929 0.619-1.492 0.619v0zM17.233 8.394c-0.226 0-0.449 0.092-0.609 0.253l-10.034 10.035c-0.171 0.171-0.265 0.398-0.265 0.64s0.094 0.469 0.264 0.639l5.478 5.478c0.327 0.326 0.897 0.328 1.222 0l10.064-10.063c0.161-0.16 0.253-0.382 0.253-0.61v-6.372h-6.373zM19.313 15.454c-0.739 0-1.433-0.288-1.956-0.81s-0.81-1.217-0.81-1.956 0.288-1.434 0.811-1.956c1.042-1.044 2.863-1.045 3.91 0 1.077 1.079 1.077 2.833 0 3.911-0.523 0.523-1.218 0.811-1.955 0.811v0zM19.313 11.168c-0.406 0-0.788 0.158-1.075 0.446-0.287 0.286-0.445 0.668-0.445 1.074s0.158 0.787 0.445 1.075c0.572 0.574 1.574 0.574 2.149 0 0.593-0.593 0.593-1.558 0-2.149-0.287-0.288-0.669-0.446-1.074-0.446v0z"></path>
</svg>
