<svg version="1.1" xmlns="http://www.w3.org/2000/svg" width="32" height="32" viewBox="0 0 32 32">
<title>tk-arrow-right</title>
<path d="M16 0c8.823 0 16 7.177 16 16s-7.177 16-16 16c-8.823 0-16-7.177-16-16s7.177-16 16-16v0zM16 30.754c8.136 0 14.754-6.619 14.754-14.754s-6.619-14.755-14.754-14.755-14.754 6.619-14.754 14.755c0 8.135 6.619 14.754 14.754 14.754v0zM12.005 5.378c-0.244 0.244-0.244 0.638 0 0.881l9.741 9.742-9.741 9.742c-0.244 0.242-0.244 0.638 0 0.881 0.242 0.242 0.637 0.242 0.881 0l10.182-10.182c0.116-0.118 0.182-0.276 0.182-0.44s-0.066-0.324-0.182-0.44l-10.182-10.182c-0.122-0.121-0.281-0.182-0.44-0.182s-0.319 0.061-0.44 0.182v0z"></path>
</svg>
