<svg version="1.1" xmlns="http://www.w3.org/2000/svg" width="32" height="32" viewBox="0 0 32 32">
<title>tk-admin</title>
<path d="M15.891 30.763c-8.080 0-14.654-6.574-14.654-14.654s6.574-14.655 14.654-14.655 14.654 6.574 14.654 14.655c0 8.080-6.574 14.654-14.654 14.654zM15.891 0.217c-8.763 0-15.892 7.129-15.892 15.892s7.129 15.891 15.892 15.891 15.892-7.129 15.892-15.891c0-8.763-7.129-15.892-15.892-15.892zM21.863 16.727h3.378v2.692h-3.378v-2.692zM8.775 19.080c-1.639 0-2.972-1.333-2.972-2.972s1.334-2.972 2.972-2.972c1.639 0 2.972 1.333 2.972 2.972s-1.333 2.972-2.972 2.972v0zM25.859 15.49h-12.925c-0.301-2.028-2.048-3.591-4.159-3.591-2.321 0-4.209 1.888-4.209 4.209s1.889 4.209 4.209 4.209c2.111 0 3.857-1.563 4.159-3.591h7.691v3.311c0 0.341 0.277 0.618 0.619 0.618h4.615c0.341 0 0.618-0.277 0.618-0.618v-3.929c0-0.341-0.277-0.618-0.618-0.618v0z"></path>
</svg>
