<svg version="1.1" xmlns="http://www.w3.org/2000/svg" width="32" height="32" viewBox="0 0 32 32">
<title>tk-arrow-link</title>
<path d="M16.103 0.465c-8.619 0-15.639 7.019-15.639 15.639s7.019 15.587 15.587 15.587c8.568 0 15.587-7.019 15.587-15.587s-6.916-15.639-15.535-15.639v0 0zM16.103 30.4c-7.639 0-13.935-6.039-14.297-13.626h21.987l-7.329 7.277c-0.258 0.258-0.258 0.671 0 0.929 0.103 0.155 0.31 0.206 0.465 0.206s0.31-0.052 0.465-0.206l8.465-8.413c0.052-0.052 0.103-0.155 0.155-0.206 0.052-0.103 0.052-0.155 0.052-0.258s0-0.155-0.052-0.258c-0.052-0.103-0.103-0.155-0.155-0.206v0l-8.465-8.413c-0.258-0.258-0.671-0.258-0.929 0s-0.258 0.671 0 0.929l7.329 7.277h-21.987c0.361-7.587 6.606-13.626 14.297-13.626 7.897 0 14.297 6.4 14.297 14.297 0 7.845-6.452 14.297-14.297 14.297v0 0z"></path>
</svg>
