<svg version="1.1" xmlns="http://www.w3.org/2000/svg" width="32" height="32" viewBox="0 0 32 32">
<title>tk-close</title>
<path d="M16 32c-8.823 0-16-7.177-16-16s7.177-16 16-16c8.823 0 16 7.177 16 16s-7.177 16-16 16v0zM16 1.245c-8.136 0-14.754 6.619-14.754 14.755s6.619 14.754 14.754 14.754 14.754-6.619 14.754-14.754c0-8.136-6.619-14.755-14.754-14.755v0zM16.881 16l7.633 7.633c0.243 0.244 0.243 0.638 0 0.882-0.122 0.122-0.281 0.183-0.44 0.183s-0.318-0.061-0.44-0.183l-7.633-7.633-7.633 7.633c-0.122 0.122-0.281 0.183-0.44 0.183s-0.319-0.061-0.441-0.183c-0.242-0.243-0.242-0.638 0-0.882l7.633-7.633-7.633-7.633c-0.242-0.242-0.242-0.638 0-0.881 0.244-0.242 0.638-0.242 0.882 0l7.633 7.633 7.633-7.633c0.243-0.242 0.638-0.242 0.881 0s0.243 0.638 0 0.881l-7.633 7.633z"></path>
</svg>
