<svg version="1.1" xmlns="http://www.w3.org/2000/svg" width="32" height="32" viewBox="0 0 32 32">
<title>tk-community</title>
<path d="M32 16c0-8.823-7.177-16-16-16s-16 7.177-16 16c0 8.813 7.179 16 16 16 8.766 0 16-7.136 16-16v0zM16 1.245c8.136 0 14.754 6.619 14.754 14.755 0 2.194-0.494 4.27-1.357 6.143-0.888-3.649-2.754-5.919-4.986-5.919-1.362 0-2.626 0.895-3.602 2.49-1.002-3.026-2.744-4.952-4.809-4.952-2.056 0-3.793 1.922-4.797 4.945-0.977-1.59-2.245-2.483-3.614-2.483-2.221 0-4.085 2.278-4.978 5.937-0.868-1.878-1.365-3.96-1.365-6.161 0-8.136 6.619-14.755 14.754-14.755v0zM3.542 23.87c0.594-3.78 2.239-6.401 4.047-6.401 1.184 0 2.318 1.103 3.134 3.021-0.288 1.367-0.447 2.886-0.447 4.507v4.6c-2.788-1.179-5.129-3.197-6.734-5.728v0zM11.522 30.055v-5.058c0-6.171 2.325-9.989 4.478-9.989 2.766 0 4.479 5.151 4.479 9.922v5.124c-1.413 0.452-2.917 0.7-4.479 0.7s-3.064-0.248-4.478-0.699v0zM21.725 29.597v-4.667c0-1.592-0.153-3.086-0.436-4.432 0.818-1.924 1.947-3.029 3.122-3.029 1.821 0 3.469 2.616 4.055 6.388-1.605 2.536-3.949 4.56-6.741 5.74v0zM16 13.227c1.982 0 3.593-1.611 3.593-3.592s-1.611-3.593-3.593-3.593c-1.98 0-3.592 1.612-3.592 3.593s1.612 3.592 3.592 3.592zM16 7.288c1.294 0 2.348 1.053 2.348 2.347s-1.054 2.347-2.348 2.347-2.347-1.053-2.347-2.347c0-1.294 1.052-2.347 2.347-2.347zM7.589 15.688c1.982 0 3.593-1.611 3.593-3.592 0-1.982-1.611-3.593-3.593-3.593-1.98 0-3.592 1.611-3.592 3.593 0 1.98 1.612 3.592 3.592 3.592zM7.589 9.749c1.294 0 2.347 1.053 2.347 2.348 0 1.294-1.053 2.347-2.347 2.347s-2.347-1.053-2.347-2.347c0-1.295 1.052-2.348 2.347-2.348zM24.411 15.688c1.981 0 3.593-1.611 3.593-3.592 0-1.982-1.612-3.593-3.593-3.593s-3.593 1.611-3.593 3.593c0 1.98 1.612 3.592 3.593 3.592zM24.411 9.749c1.294 0 2.347 1.053 2.347 2.348 0 1.294-1.053 2.347-2.347 2.347s-2.347-1.053-2.347-2.347c0-1.295 1.053-2.348 2.347-2.348z"></path>
</svg>
