<svg version="1.1" xmlns="http://www.w3.org/2000/svg" width="32" height="32" viewBox="0 0 32 32">
<title>tk-close-single</title>
<path d="M17.542 16l13.358 13.358c0.425 0.427 0.425 1.117 0 1.543-0.213 0.213-0.492 0.32-0.771 0.32s-0.557-0.107-0.771-0.32l-13.358-13.358-13.358 13.358c-0.213 0.213-0.492 0.32-0.771 0.32s-0.559-0.107-0.772-0.32c-0.424-0.425-0.424-1.116 0-1.543l13.358-13.358-13.358-13.358c-0.424-0.424-0.424-1.116 0-1.541 0.427-0.424 1.117-0.424 1.543 0l13.358 13.358 13.358-13.358c0.425-0.424 1.116-0.424 1.541 0 0.425 0.425 0.425 1.117 0 1.541l-13.358 13.358z"></path>
</svg>
