<svg version="1.1" xmlns="http://www.w3.org/2000/svg" width="32" height="32" viewBox="0 0 32 32">
<title>tk-check-border-circle</title>
<path d="M16 0c-8.823 0-16 7.176-16 16s7.177 16 16 16c8.822 0 16-7.177 16-16s-7.178-16-16-16v0zM16 30.754c-8.136 0-14.754-6.619-14.754-14.754s6.618-14.755 14.754-14.755c8.136 0 14.754 6.619 14.754 14.755s-6.618 14.754-14.754 14.754v0zM23.18 7.446l-12.59 16.253-2.928-4.737c-0.182-0.293-0.565-0.385-0.857-0.202-0.293 0.181-0.383 0.565-0.203 0.857l3.4 5.499c0.107 0.174 0.293 0.284 0.497 0.295 0.011 0 0.023 0.001 0.033 0.001 0.193 0 0.375-0.088 0.492-0.242l13.14-16.963c0.21-0.271 0.161-0.663-0.111-0.873-0.272-0.212-0.664-0.162-0.873 0.111z"></path>
</svg>
