<svg version="1.1" xmlns="http://www.w3.org/2000/svg" width="32" height="32" viewBox="0 0 32 32">
<title>tk-compass</title>
<path d="M16.103 0.465c-8.619 0-15.639 7.019-15.639 15.639s7.019 15.587 15.587 15.587c8.568 0 15.587-7.019 15.587-15.587s-6.916-15.639-15.535-15.639v0zM16.103 30.4c-7.897 0-14.297-6.4-14.297-14.297s6.4-14.297 14.297-14.297c7.897 0 14.297 6.4 14.297 14.297 0 7.845-6.4 14.297-14.297 14.297v0zM23.948 7.381l-10.219 4.697c-0.723 0.31-1.29 0.877-1.6 1.6l-4.697 10.219c-0.103 0.258-0.052 0.568 0.155 0.723 0.103 0.103 0.31 0.206 0.465 0.206 0.103 0 0.206 0 0.258-0.052l10.219-4.697c0.723-0.31 1.29-0.877 1.6-1.6l4.645-10.219c0.103-0.258 0.052-0.568-0.155-0.723-0.155-0.206-0.465-0.258-0.671-0.155v0zM9.342 22.865l3.974-8.619 0.774 0.774c-0.206 0.361-0.31 0.723-0.31 1.135 0 0.619 0.258 1.239 0.671 1.652 0.465 0.465 1.032 0.671 1.652 0.671 0.413 0 0.774-0.103 1.135-0.31l0.723 0.723-8.619 3.974zM16.826 16.826c-0.413 0.413-1.084 0.413-1.497 0-0.206-0.206-0.31-0.465-0.31-0.723s0.103-0.516 0.31-0.723c0.206-0.206 0.465-0.31 0.723-0.31s0.516 0.103 0.723 0.31c0.206 0.206 0.31 0.465 0.31 0.723 0.052 0.31-0.052 0.568-0.258 0.723v0zM18.89 17.91c0 0.052 0 0.052 0 0l-0.723-0.671c0.206-0.361 0.31-0.723 0.31-1.135 0-0.619-0.258-1.239-0.671-1.652-0.465-0.465-1.032-0.671-1.652-0.671-0.413 0-0.774 0.103-1.135 0.31l-0.774-0.774 8.619-3.974-3.974 8.568z"></path>
</svg>
