<svg version="1.1" xmlns="http://www.w3.org/2000/svg" width="32" height="32" viewBox="0 0 32 32">
<title>tk-language</title>
<path d="M28.178 26.36c2.381-2.793 3.822-6.411 3.822-10.36 0-0.379-0.018-0.756-0.044-1.129 0-0.005 0.003-0.008 0.003-0.013 0-0.011-0.006-0.020-0.006-0.030-0.414-5.689-3.813-10.559-8.636-13.050-0.028-0.017-0.054-0.033-0.085-0.044-2.174-1.106-4.629-1.734-7.231-1.734-8.823 0-16 7.177-16 16 0 3.695 1.262 7.099 3.374 9.811 0.019 0.033 0.045 0.059 0.070 0.088 0.123 0.156 0.249 0.31 0.378 0.461 0.024 0.030 0.045 0.059 0.073 0.085 2.936 3.398 7.272 5.554 12.104 5.554s9.168-2.156 12.104-5.554c0.028-0.026 0.050-0.055 0.073-0.085v0zM18.274 25.362h-5.567l1.59-7.645c1.687 1.442 3.112 4.126 3.977 7.645v0zM11.435 25.362h-0.002l-1.747-8.392c0.568-0.286 1.154-0.443 1.748-0.443 0.597 0 1.182 0.154 1.748 0.437l-1.746 8.399zM8.571 17.727l1.589 7.635h-5.554c-0.004-0.005-0.008-0.010-0.011-0.015 0.862-3.496 2.293-6.174 3.976-7.62v0zM30.638 14.235h-5.988c-0.557 0-1.010-0.452-1.010-1.010v-2.147c0-0.344-0.278-0.623-0.622-0.623h-3.173l3.576-3.038c0.139-0.118 0.219-0.292 0.219-0.475v-3.54c3.779 2.301 6.447 6.241 6.998 10.833v0zM16 1.245c2.293 0 4.457 0.541 6.395 1.479v3.93l-4.649 3.95c-0.199 0.169-0.27 0.445-0.181 0.689 0.090 0.245 0.323 0.408 0.584 0.408h4.246v1.525c0 1.243 1.012 2.255 2.255 2.255h6.078c0.005 0.174 0.026 0.344 0.026 0.52 0 3.551-1.262 6.813-3.36 9.362h-7.842c-1.457-6.228-4.54-10.082-8.12-10.082-3.3 0-6.215 3.326-7.781 8.769-1.516-2.317-2.406-5.080-2.406-8.050 0-8.136 6.619-14.755 14.754-14.755v0zM5.771 26.609h20.459c-2.655 2.561-6.258 4.146-10.229 4.146s-7.574-1.585-10.229-4.146zM11.433 14.407c2.53 0 4.587-2.059 4.587-4.589s-2.058-4.588-4.587-4.588c-2.53 0-4.589 2.058-4.589 4.588s2.059 4.589 4.589 4.589zM11.433 6.475c1.842 0 3.342 1.499 3.342 3.342s-1.5 3.343-3.342 3.343c-1.844 0-3.343-1.5-3.343-3.343s1.499-3.342 3.343-3.342v0z"></path>
</svg>
