<svg version="1.1" xmlns="http://www.w3.org/2000/svg" width="32" height="32" viewBox="0 0 32 32">
<title>tk-lock</title>
<path d="M15.891 30.763c-8.080 0-14.654-6.574-14.654-14.654s6.574-14.655 14.654-14.655 14.654 6.574 14.654 14.655c0 8.080-6.574 14.654-14.654 14.654zM15.891 0.217c-8.763 0-15.892 7.129-15.892 15.892s7.129 15.891 15.892 15.891 15.892-7.129 15.892-15.891c0-8.763-7.129-15.892-15.892-15.892zM23.317 23.202c0 0.796-0.647 1.443-1.443 1.443h-11.965c-0.795 0-1.442-0.647-1.442-1.443v-7.814c0-0.796 0.647-1.444 1.442-1.444h11.965c0.796 0 1.443 0.647 1.443 1.444v7.814zM11.115 9.928c0.137-2.537 2.234-4.524 4.78-4.524 2.538 0 4.635 1.988 4.772 4.5 0.007 0.468 0.009 0.692 0.009 0.879v1.927h-9.563c-0.002-0.382-0.004-0.89-0.004-1.373 0-0.47 0.002-0.975 0.007-1.407v0zM21.912 12.712v-1.931c0-0.189-0.002-0.419-0.009-0.921-0.175-3.193-2.814-5.695-6.015-5.695-3.196 0-5.835 2.502-6.010 5.72-0.005 0.463-0.007 0.973-0.007 1.449 0 0.484 0.002 0.993 0.004 1.377-1.461 0.019-2.645 1.211-2.645 2.677v7.814c0 1.478 1.202 2.681 2.679 2.681h11.965c1.478 0 2.68-1.203 2.68-2.681v-7.814c0-1.465-1.182-2.655-2.641-2.676v0zM16.827 19.328c-0.157 0.116-0.25 0.3-0.25 0.497v1.593c0 0.378-0.308 0.685-0.685 0.685s-0.685-0.307-0.685-0.685v-1.593c0-0.196-0.092-0.38-0.249-0.497-0.409-0.304-0.644-0.764-0.644-1.263 0-0.871 0.708-1.578 1.578-1.578s1.578 0.708 1.578 1.578c0 0.499-0.234 0.959-0.643 1.263zM15.891 15.25c-1.553 0-2.815 1.263-2.815 2.815 0 0.787 0.322 1.517 0.893 2.049v1.304c0 1.060 0.863 1.923 1.922 1.923s1.922-0.863 1.922-1.923v-1.305c0.572-0.531 0.893-1.261 0.893-2.048 0-1.553-1.263-2.815-2.815-2.815z"></path>
</svg>
