<svg version="1.1" xmlns="http://www.w3.org/2000/svg" width="32" height="32" viewBox="0 0 32 32">
<title>tk-pin</title>
<path d="M16 0c-8.822 0-16 7.177-16 16s7.178 16 16 16c8.823 0 16-7.177 16-16s-7.177-16-16-16v0zM16 30.754c-8.136 0-14.754-6.619-14.754-14.754s6.619-14.754 14.754-14.754 14.754 6.619 14.754 14.754c0 8.135-6.619 14.754-14.754 14.754v0zM16.42 4.96c-4.952-0.229-9.067 3.73-9.067 8.638 0 1.605 0.443 3.173 1.283 4.536 0.075 0.121 0.152 0.241 0.238 0.365l6.003 8.494c0.257 0.364 0.677 0.581 1.122 0.581s0.866-0.217 1.124-0.581l6.008-8.501c0.082-0.117 0.159-0.238 0.233-0.358 0.939-1.522 1.378-3.278 1.267-5.080-0.267-4.333-3.874-7.887-8.212-8.094zM22.305 17.48c-0.064 0.105-0.13 0.206-0.195 0.3l-6.003 8.494c-0.064 0.091-0.148 0.091-0.212 0l-5.998-8.487c-0.069-0.101-0.136-0.203-0.201-0.307-0.718-1.164-1.097-2.507-1.097-3.881 0-4.082 3.321-7.402 7.403-7.402 0.12 0 0.24 0.002 0.36 0.008 3.712 0.177 6.799 3.218 7.027 6.925 0.094 1.544-0.28 3.048-1.083 4.35zM16 9.465c-2.28 0-4.134 1.854-4.134 4.133 0 0.767 0.213 1.517 0.614 2.168 0.76 1.231 2.075 1.966 3.52 1.966 2.28 0 4.134-1.854 4.134-4.134s-1.854-4.133-4.134-4.133zM16 16.487c-1.010 0-1.929-0.513-2.46-1.374-0.28-0.454-0.427-0.978-0.427-1.514 0-1.592 1.295-2.888 2.888-2.888s2.888 1.297 2.888 2.888c0 1.592-1.296 2.888-2.888 2.888z"></path>
</svg>
