<svg version="1.1" xmlns="http://www.w3.org/2000/svg" width="32" height="32" viewBox="0 0 32 32">
<title>tk-radio</title>
<path d="M7.131 27.828h17.521c-2.447 1.834-5.474 2.935-8.761 2.935s-6.313-1.1-8.76-2.935v0zM16.57 15.9c0.484-0.627 0.818-1.322 1.010-2.044l6.369 5.745c0.322 0.292 0.367 0.788 0.101 1.132l-0.913 1.181c-0.264 0.345-0.758 0.427-1.12 0.188l-7.172-4.712c0.657-0.373 1.247-0.871 1.726-1.49v0zM15.232 9.178c1.569 1.595 1.764 4.147 0.359 5.967-1.386 1.795-3.876 2.303-5.861 1.158l5.502-7.124zM7.479 12.943c-0.348-2.707 1.751-5.129 4.516-5.129 0.804 0 1.571 0.215 2.257 0.611l-5.503 7.124c-0.695-0.704-1.142-1.608-1.27-2.606v0zM1.237 16.109c0-8.081 6.574-14.655 14.654-14.655s14.655 6.574 14.655 14.655c0 4.107-1.703 7.819-4.435 10.482h-7.98v-5.561l3.207 2.107c0.346 0.228 0.741 0.337 1.132 0.337 0.625 0 1.241-0.279 1.646-0.804l0.913-1.18c0.659-0.852 0.548-2.085-0.252-2.807l-7.008-6.322c-0.005-3.207-2.584-5.783-5.774-5.783-3.513 0-6.185 3.079-5.743 6.523 0.375 2.911 2.847 5.049 5.735 5.049 0.503 0 0.993-0.069 1.466-0.192l3.439 2.26v6.375h-11.221c-2.732-2.663-4.435-6.375-4.435-10.482v0zM31.783 16.109c0-8.763-7.129-15.892-15.892-15.892s-15.891 7.129-15.891 15.892c0 8.767 7.148 15.891 15.891 15.891 8.732 0 15.892-7.113 15.892-15.891v0z"></path>
</svg>
