<svg version="1.1" xmlns="http://www.w3.org/2000/svg" width="32" height="32" viewBox="0 0 32 32">
<title>tk-settings</title>
<path d="M16.001 0c-8.823 0-16.001 7.178-16.001 16.001s7.178 16.001 16.001 16.001c8.824 0 16.002-7.178 16.002-16.001s-7.178-16.001-16.002-16.001v0zM26.216 25.829c-0.905 0-1.641-0.736-1.641-1.641s0.736-1.64 1.641-1.64c0.906 0 1.641 0.736 1.641 1.64s-0.735 1.641-1.641 1.641v0zM26.216 21.302c-1.592 0-2.887 1.295-2.887 2.886 0 1.438 1.061 2.625 2.44 2.841-1.586 1.407-3.47 2.482-5.552 3.105-0.629-0.638-1.16-1.368-1.567-2.184-0.127-0.256-0.414-0.392-0.696-0.328l-2.605 0.595c-0.343-0.932-0.562-1.919-0.654-2.945l2.586-0.59c0.28-0.064 0.48-0.312 0.484-0.599 0.015-1.202 0.281-2.367 0.792-3.463 0.122-0.261 0.049-0.571-0.176-0.75l-2.087-1.665c0.517-0.854 1.15-1.641 1.89-2.35l2.078 1.657c0.226 0.178 0.542 0.181 0.77 0.004 0.952-0.74 2.027-1.258 3.198-1.541 0.28-0.067 0.477-0.318 0.477-0.605v-2.661c1.048-0.144 1.97-0.144 3.016 0v2.661c0 0.287 0.197 0.538 0.477 0.604 0.892 0.216 1.73 0.579 2.503 1.065-0.155 2.203-0.784 4.274-1.803 6.107-0.419-1.077-1.461-1.845-2.684-1.845v0zM5.895 6.075c0.906 0 1.641 0.736 1.641 1.641s-0.735 1.641-1.641 1.641c-0.905 0-1.641-0.736-1.641-1.641s0.736-1.641 1.641-1.641v0zM3.194 8.703c0.405 1.105 1.458 1.899 2.701 1.899 1.592 0 2.887-1.296 2.887-2.887 0-1.439-1.062-2.626-2.443-2.842 2.476-2.152 5.669-3.488 9.173-3.604 0.103 0.153 0.21 0.304 0.305 0.46l-2.088 1.665c-0.226 0.179-0.297 0.489-0.176 0.75 0.511 1.096 0.778 2.26 0.793 3.463 0.004 0.287 0.203 0.535 0.485 0.599l2.586 0.59c-0.092 1.026-0.312 2.012-0.654 2.944l-2.605-0.594c-0.281-0.065-0.568 0.072-0.696 0.329-0.543 1.090-1.288 2.027-2.212 2.783-0.222 0.183-0.291 0.494-0.166 0.753l1.15 2.389c-0.847 0.555-1.757 0.994-2.716 1.31l-1.151-2.39c-0.126-0.259-0.411-0.402-0.692-0.34-1.188 0.254-2.383 0.253-3.558 0.001-0.28-0.063-0.567 0.081-0.693 0.339l-1.15 2.391c-0.279-0.091-0.548-0.205-0.817-0.317-0.128-0.781-0.212-1.578-0.212-2.395 0-2.656 0.715-5.143 1.948-7.298v0zM1.773 19.85c0.219 0.075 0.439 0.151 0.663 0.214 0.056 0.014 0.112 0.023 0.168 0.023 0.235 0 0.456-0.133 0.562-0.353l1.176-2.443c1.032 0.168 2.069 0.169 3.112 0l1.176 2.442c0.13 0.272 0.437 0.408 0.729 0.33 1.451-0.407 2.809-1.061 4.035-1.947 0.245-0.177 0.328-0.504 0.197-0.776l-1.176-2.44c0.77-0.699 1.418-1.515 1.933-2.434l2.661 0.607c0.296 0.069 0.595-0.086 0.712-0.365 0.575-1.359 0.904-2.83 0.978-4.37 0.014-0.302-0.19-0.57-0.483-0.637l-2.64-0.602c-0.066-1.044-0.299-2.059-0.694-3.030l2.132-1.7c0.236-0.189 0.303-0.52 0.158-0.784-0.053-0.098-0.114-0.194-0.17-0.29 7.544 0.51 13.541 6.7 13.737 14.324-0.565-0.299-1.153-0.546-1.768-0.728v-2.716c0-0.302-0.217-0.56-0.515-0.613-1.579-0.277-2.898-0.277-4.478 0-0.297 0.053-0.514 0.312-0.514 0.613v2.716c-1.003 0.295-1.941 0.747-2.798 1.348l-2.121-1.692c-0.235-0.189-0.574-0.18-0.8 0.021-1.149 1.013-2.092 2.187-2.803 3.491-0.144 0.265-0.077 0.596 0.158 0.785l2.133 1.701c-0.395 0.971-0.628 1.986-0.693 3.029l-2.64 0.602c-0.293 0.067-0.498 0.336-0.483 0.637 0.075 1.542 0.404 3.012 0.978 4.371 0.117 0.279 0.415 0.434 0.712 0.366l2.661-0.608c0.309 0.549 0.671 1.059 1.074 1.534-0.92 0.18-1.868 0.28-2.84 0.28-6.802 0-12.529-4.633-14.228-10.906v0z"></path>
</svg>
