<svg version="1.1" xmlns="http://www.w3.org/2000/svg" width="32" height="32" viewBox="0 0 32 32">
<title>tk-status-update</title>
<path d="M16 0c-8.823 0-16 7.177-16 16s7.177 16 16 16c8.823 0 16-7.177 16-16s-7.177-16-16-16v0zM16 30.754c-8.136 0-14.754-6.619-14.754-14.754s6.619-14.755 14.754-14.755 14.754 6.619 14.754 14.755c0 8.135-6.619 14.754-14.754 14.754v0zM13.711 16.371c1.16-0.464 1.985-1.595 1.985-2.919 0-1.736-1.413-3.148-3.149-3.148s-3.148 1.413-3.148 3.148c0 1.325 0.826 2.456 1.987 2.92-0.981 0.328-1.888 1.064-2.624 2.165-0.19 0.286-0.114 0.672 0.172 0.864 0.286 0.19 0.673 0.114 0.864-0.172 0.779-1.166 1.755-1.808 2.747-1.808 1.003 0 1.986 0.642 2.767 1.809 0.12 0.178 0.317 0.276 0.518 0.276 0.119 0 0.239-0.034 0.347-0.104 0.284-0.192 0.361-0.579 0.17-0.865-0.738-1.101-1.648-1.837-2.636-2.165zM10.645 13.452c0-1.049 0.853-1.902 1.902-1.902s1.902 0.853 1.902 1.902-0.853 1.902-1.902 1.902c-1.048 0-1.902-0.853-1.902-1.902zM22.92 16.933h-4.548c-0.344 0-0.622 0.28-0.622 0.623s0.279 0.622 0.622 0.622h4.548c0.344 0 0.624-0.278 0.624-0.622s-0.28-0.623-0.624-0.623zM22.92 14.282h-4.548c-0.344 0-0.622 0.279-0.622 0.623s0.279 0.622 0.622 0.622h4.548c0.344 0 0.624-0.279 0.624-0.622s-0.28-0.623-0.624-0.623zM22.92 11.631h-4.548c-0.344 0-0.622 0.28-0.622 0.623s0.279 0.622 0.622 0.622h4.548c0.344 0 0.624-0.279 0.624-0.622s-0.28-0.623-0.624-0.623zM23.39 7.372h-14.779c-1.693 0-3.070 1.378-3.070 3.072v8.923c0 1.693 1.378 3.071 3.070 3.071h2.541v4.053c0 0.261 0.163 0.494 0.408 0.584 0.070 0.026 0.142 0.039 0.214 0.039 0.179 0 0.354-0.078 0.475-0.22l3.786-4.456h7.355c1.694 0 3.071-1.378 3.071-3.071v-8.923c0-1.694-1.378-3.072-3.071-3.072zM25.216 19.367c0 1.006-0.819 1.825-1.826 1.825h-7.643c-0.183 0-0.357 0.081-0.475 0.219l-2.875 3.385v-2.981c0-0.344-0.279-0.623-0.623-0.623h-3.163c-1.006 0-1.826-0.818-1.826-1.825v-8.923c0-1.008 0.819-1.826 1.826-1.826h14.779c1.007 0 1.826 0.818 1.826 1.826v8.923z"></path>
</svg>
