<svg version="1.1" xmlns="http://www.w3.org/2000/svg" width="32" height="32" viewBox="0 0 32 32">
<title>tk-zu-hiesinger</title>
<path d="M16.103 0.465c-8.619 0-15.639 7.019-15.639 15.639s7.019 15.587 15.587 15.587c8.568 0 15.587-7.019 15.587-15.587 0.052-8.619-6.916-15.639-15.535-15.639v0zM16.103 30.4c-7.897 0-14.297-6.4-14.297-14.297s6.4-14.297 14.297-14.297c7.897 0 14.297 6.4 14.297 14.297 0 7.845-6.452 14.297-14.297 14.297v0zM25.187 11.097h-4.697v-1.032c0-1.342-1.084-2.426-2.426-2.426h-10.581c-1.342 0-2.426 1.084-2.426 2.426v6.4c0 1.342 1.084 2.426 2.426 2.426h1.6v2.684c0 0.258 0.155 0.516 0.413 0.619 0.052 0.052 0.155 0.052 0.206 0.052 0.206 0 0.361-0.103 0.516-0.258l2.632-3.097h5.161c1.342 0 2.426-1.084 2.426-2.426v-4.026h4.697c0.619 0 1.084 0.516 1.084 1.084v5.677c0 0.619-0.516 1.084-1.084 1.084h-2.271c-0.361 0-0.671 0.31-0.671 0.671v1.548l-1.703-2.013c-0.103-0.155-0.31-0.206-0.516-0.206h-3.974c-0.361 0-0.671 0.31-0.671 0.671s0.31 0.671 0.671 0.671h3.716l2.632 3.097c0.103 0.155 0.31 0.206 0.516 0.206 0.052 0 0.155 0 0.206-0.052 0.258-0.103 0.413-0.361 0.413-0.619v-2.684h1.6c1.342 0 2.426-1.084 2.426-2.426v-5.677c0.103-1.29-0.981-2.374-2.323-2.374v0zM19.2 16.465c0 0.619-0.516 1.084-1.084 1.084h-5.523c-0.206 0-0.361 0.103-0.516 0.206l-1.703 2.013v-1.548c0-0.361-0.31-0.671-0.671-0.671h-2.271c-0.619 0-1.084-0.516-1.084-1.084v-6.4c0-0.619 0.516-1.084 1.084-1.084h10.632c0.619 0 1.084 0.516 1.084 1.084v6.4h0.052z"></path>
</svg>
